# xmcd CD database file
#
# Track frame offsets:
#	150
#	27284
#	45955
#	72526
#	100506
#	126602
#	165068
#	183839
#	210824
#	236874
#
# Disc length: 3528 seconds
#
# Revision: 0
# Processed by: cddbd v1.5.2PL0 Copyright (c) Steve Scherf et al.
# Submitted via: CDex 1.51
#
DISCID=780dc60a
DTITLE=Artisti Vari - Wellness
DYEAR=1900
DGENRE=New Age
TTITLE0=The smell of sunrise
TTITLE1=Morning thaw
TTITLE2=weightless
TTITLE3=At first sight
TTITLE4=Waves of life
TTITLE5=Like sand in your hand
TTITLE6=Getting up with the birds
TTITLE7=Dreaming with the wind
TTITLE8=Fixed stars
TTITLE9=Like the rising sun
EXTD=
EXTT0=
EXTT1=
EXTT2=
EXTT3=
EXTT4=
EXTT5=
EXTT6=
EXTT7=
EXTT8=
EXTT9=
PLAYORDER=
